<svg xmlns="http://www.w3.org/2000/svg" xmlns:xlink="http://www.w3.org/1999/xlink" width="500" zoomAndPan="magnify" viewBox="0 0 375 374.999991" height="500" preserveAspectRatio="xMidYMid meet" version="1.0"><defs><g/></defs><g fill="#f4f4f4" fill-opacity="1"><g transform="translate(17.217671, 236.414948)"><g><path d="M 36.765625 -71.34375 L 36.671875 -32.859375 C 36.609375 -22.992188 38.421875 -17.394531 42.109375 -16.0625 C 42.535156 -15.695312 42.75 -15.269531 42.75 -14.78125 C 42.75 -14.300781 42.535156 -13.910156 42.109375 -13.609375 C 36.785156 -9.679688 32.367188 -4.269531 28.859375 2.625 C 28.492188 3.175781 28.023438 3.453125 27.453125 3.453125 C 26.878906 3.453125 26.441406 3.175781 26.140625 2.625 C 22.628906 -4.207031 18.03125 -9.59375 12.34375 -13.53125 C 11.976562 -13.882812 11.796875 -14.300781 11.796875 -14.78125 C 11.796875 -15.269531 12.007812 -15.695312 12.4375 -16.0625 C 16.488281 -17.394531 18.453125 -22.992188 18.328125 -32.859375 L 18.328125 -64.890625 C 18.328125 -71.066406 17.179688 -74.851562 14.890625 -76.25 C 12.222656 -78 10.039062 -77.363281 8.34375 -74.34375 C 7.6875 -73.070312 6.914062 -72.722656 6.03125 -73.296875 C 5.15625 -73.867188 5.203125 -74.972656 6.171875 -76.609375 C 7.921875 -79.390625 9.597656 -82.234375 11.203125 -85.140625 C 12.804688 -88.046875 14.457031 -90.953125 16.15625 -93.859375 C 17.125 -95.609375 18.484375 -95.96875 20.234375 -94.9375 L 20.328125 -94.84375 C 29.046875 -90.550781 34.3125 -85.226562 36.125 -78.875 C 36.300781 -78.269531 36.632812 -77.9375 37.125 -77.875 C 37.601562 -77.695312 38.085938 -77.757812 38.578125 -78.0625 C 41.546875 -80.601562 44.675781 -83.335938 47.96875 -86.265625 C 51.269531 -89.203125 53.554688 -91.734375 54.828125 -93.859375 C 55.796875 -95.546875 57.125 -95.90625 58.8125 -94.9375 C 67.53125 -90.644531 72.828125 -85.410156 74.703125 -79.234375 C 74.941406 -78.390625 75.300781 -77.96875 75.78125 -77.96875 C 76.269531 -77.96875 76.695312 -78.148438 77.0625 -78.515625 C 80.332031 -81.171875 83.554688 -83.9375 86.734375 -86.8125 C 89.910156 -89.6875 92.132812 -92.394531 93.40625 -94.9375 C 94.0625 -96.507812 95.148438 -96.476562 96.671875 -94.84375 C 100.296875 -91.039062 103.410156 -88.019531 106.015625 -85.78125 C 108.617188 -83.539062 113.003906 -81.875 119.171875 -80.78125 C 120.078125 -80.601562 120.5625 -80.210938 120.625 -79.609375 C 120.625 -78.578125 120.289062 -78.03125 119.625 -77.96875 C 118.050781 -77.363281 116.660156 -76.316406 115.453125 -74.828125 C 114.242188 -73.347656 113.640625 -70.882812 113.640625 -67.4375 L 113.640625 -27.953125 C 113.640625 -21.785156 114.789062 -18.003906 117.09375 -16.609375 C 119.75 -15.035156 121.925781 -15.703125 123.625 -18.609375 C 124.226562 -19.753906 124.96875 -20.007812 125.84375 -19.375 C 126.726562 -18.738281 126.742188 -17.695312 125.890625 -16.25 C 124.078125 -13.40625 122.351562 -10.546875 120.71875 -7.671875 C 119.082031 -4.796875 117.445312 -1.9375 115.8125 0.90625 C 114.726562 2.601562 113.367188 3 111.734375 2.09375 C 106.222656 -0.570312 102.09375 -3.84375 99.34375 -7.71875 C 96.59375 -11.59375 95.21875 -16.222656 95.21875 -21.609375 L 95.3125 -69.171875 C 95.3125 -70.984375 94.828125 -72.222656 93.859375 -72.890625 L 86.234375 -79.234375 C 85.503906 -79.722656 84.773438 -79.753906 84.046875 -79.328125 C 80.117188 -76.304688 77.695312 -74.414062 76.78125 -73.65625 C 75.875 -72.894531 75.421875 -72.0625 75.421875 -71.15625 L 75.34375 -32.859375 C 75.34375 -22.929688 77.1875 -17.332031 80.875 -16.0625 C 81.300781 -15.644531 81.515625 -15.238281 81.515625 -14.84375 C 81.515625 -14.445312 81.300781 -14.035156 80.875 -13.609375 C 75.550781 -9.796875 71.101562 -4.382812 67.53125 2.625 C 67.164062 3.175781 66.679688 3.453125 66.078125 3.453125 C 65.472656 3.453125 65.078125 3.175781 64.890625 2.625 C 61.441406 -4.082031 56.847656 -9.46875 51.109375 -13.53125 C 50.679688 -13.832031 50.46875 -14.222656 50.46875 -14.703125 C 50.46875 -15.191406 50.679688 -15.644531 51.109375 -16.0625 C 55.398438 -17.394531 57.394531 -22.992188 57.09375 -32.859375 L 57 -64.890625 C 57 -69.367188 55.847656 -73.15625 53.546875 -76.25 C 50.703125 -80 47.828125 -80.722656 44.921875 -78.421875 L 37.3125 -72.609375 L 36.9375 -72.0625 Z M 36.765625 -71.34375 "/></g></g></g><g fill="#f4f4f4" fill-opacity="1"><g transform="translate(142.535256, 210.095147)"><g><path d="M 22.046875 -5.828125 C 20.640625 -4.753906 19.097656 -3.578125 17.421875 -2.296875 C 15.742188 -1.015625 14.191406 0.160156 12.765625 1.234375 C 12.265625 1.617188 11.867188 1.785156 11.578125 1.734375 C 11.285156 1.679688 11.171875 1.429688 11.234375 0.984375 C 11.234375 0.410156 10.378906 -0.6875 8.671875 -2.3125 C 4.179688 -6.519531 2.019531 -12 2.1875 -18.75 C 2.351562 -24.53125 5.035156 -29.414062 10.234375 -33.40625 C 11.835938 -34.613281 13.332031 -35.890625 14.71875 -37.234375 C 16.113281 -38.585938 17.347656 -40.226562 18.421875 -42.15625 C 18.859375 -43.007812 19.460938 -43.035156 20.234375 -42.234375 C 24.421875 -37.503906 28.601562 -34.710938 32.78125 -33.859375 C 34.101562 -33.609375 34.242188 -33.082031 33.203125 -32.28125 C 31.898438 -31.351562 31.195312 -30.203125 31.09375 -28.828125 L 31.09375 -28.734375 L 31.21875 -9.875 C 31.21875 -8.601562 31.675781 -7.734375 32.59375 -7.265625 C 33.519531 -6.796875 34.519531 -7.15625 35.59375 -8.34375 C 36.007812 -8.8125 36.398438 -8.925781 36.765625 -8.6875 C 37.140625 -8.457031 37.148438 -8.039062 36.796875 -7.4375 C 35.796875 -5.945312 34.832031 -4.484375 33.90625 -3.046875 C 32.988281 -1.617188 32.21875 -0.132812 31.59375 1.40625 L 31.546875 1.4375 C 31.160156 2.070312 30.691406 2.070312 30.140625 1.4375 C 29.835938 1.113281 29.476562 0.894531 29.0625 0.78125 C 25.925781 0.09375 23.945312 -1.984375 23.125 -5.453125 C 23.070312 -5.617188 22.929688 -5.785156 22.703125 -5.953125 C 22.460938 -5.972656 22.242188 -5.929688 22.046875 -5.828125 Z M 22.5 -30.140625 C 20.789062 -30.609375 18.796875 -31.929688 16.515625 -34.109375 C 15.410156 -35.429688 14.53125 -35.554688 13.875 -34.484375 C 10.957031 -30.128906 9.816406 -25.320312 10.453125 -20.0625 C 11.328125 -12.550781 13.96875 -7.914062 18.375 -6.15625 C 18.40625 -6.15625 18.429688 -6.140625 18.453125 -6.109375 C 19.585938 -5.753906 20.953125 -6.429688 22.546875 -8.140625 C 22.648438 -8.296875 22.703125 -8.445312 22.703125 -8.59375 C 22.679688 -9 22.671875 -9.644531 22.671875 -10.53125 L 23.046875 -29.484375 C 23.046875 -29.816406 22.863281 -30.035156 22.5 -30.140625 Z M 22.5 -30.140625 "/></g></g></g><g fill="#f4f4f4" fill-opacity="1"><g transform="translate(180.286193, 210.095147)"><g><path d="M 14.03125 1.15625 C 13.976562 0.5 13.628906 0.00390625 12.984375 -0.328125 C 12.335938 -0.660156 11.796875 -0.992188 11.359375 -1.328125 C 8.191406 -3.472656 5.953125 -6.09375 4.640625 -9.1875 C 3.335938 -12.28125 2.601562 -15.5625 2.4375 -19.03125 C 2.101562 -26.875 4.222656 -32.847656 8.796875 -36.953125 C 10.421875 -38.410156 12.289062 -39.597656 14.40625 -40.515625 C 16.53125 -41.441406 18.707031 -42.195312 20.9375 -42.78125 C 21.625 -42.914062 22.132812 -42.570312 22.46875 -41.75 L 28.40625 -27.78125 C 28.6875 -27.039062 28.59375 -26.578125 28.125 -26.390625 L 28.03125 -26.390625 L 11.109375 -19.8125 C 10.773438 -19.65625 10.632812 -19.394531 10.6875 -19.03125 C 12.039062 -12.925781 14.300781 -9.007812 17.46875 -7.28125 C 20.632812 -5.5625 23.785156 -5.3125 26.921875 -6.53125 C 27.472656 -6.769531 27.820312 -6.722656 27.96875 -6.390625 C 28.125 -6.066406 28.023438 -5.820312 27.671875 -5.65625 C 25.429688 -4.53125 23.300781 -3.375 21.28125 -2.1875 C 19.257812 -1 17.453125 0.238281 15.859375 1.53125 C 15.609375 1.695312 15.238281 1.75 14.75 1.6875 C 14.269531 1.632812 14.03125 1.457031 14.03125 1.15625 Z M 10.203125 -22.171875 C 10.222656 -21.953125 10.316406 -21.78125 10.484375 -21.65625 C 10.648438 -21.53125 10.859375 -21.523438 11.109375 -21.640625 L 19.90625 -24.9375 C 20.3125 -25.101562 20.4375 -25.394531 20.28125 -25.8125 L 15.234375 -38.15625 C 14.984375 -38.757812 14.488281 -38.84375 13.75 -38.40625 C 12.15625 -37.46875 11.066406 -35.332031 10.484375 -32 C 9.910156 -28.664062 9.816406 -25.390625 10.203125 -22.171875 Z M 10.203125 -22.171875 "/></g></g></g><g fill="#f4f4f4" fill-opacity="1"><g transform="translate(209.696892, 210.095147)"><g><path d="M 2.140625 -54.25 C 1.785156 -54.632812 1.78125 -55.003906 2.125 -55.359375 C 2.46875 -55.722656 2.898438 -55.65625 3.421875 -55.15625 C 4.054688 -54.382812 4.710938 -53.554688 5.390625 -52.671875 C 6.066406 -51.796875 6.640625 -50.894531 7.109375 -49.96875 C 7.242188 -49.6875 7.441406 -49.546875 7.703125 -49.546875 C 7.960938 -49.546875 8.160156 -49.65625 8.296875 -49.875 C 9.921875 -52.625 12.175781 -54.847656 15.0625 -56.546875 C 17.957031 -58.242188 21.082031 -59.035156 24.4375 -58.921875 C 25.070312 -58.890625 25.398438 -58.617188 25.421875 -58.109375 C 25.453125 -57.609375 25.125 -57.359375 24.4375 -57.359375 C 21.71875 -57.359375 19.535156 -56.570312 17.890625 -55 C 16.253906 -53.425781 15.4375 -50.5625 15.4375 -46.40625 L 15.40625 -10.65625 C 15.40625 -9.769531 15.609375 -9.203125 16.015625 -8.953125 L 19 -7.265625 C 19.6875 -7.015625 20.632812 -7.675781 21.84375 -9.25 C 22.144531 -9.664062 22.515625 -9.753906 22.953125 -9.515625 C 23.398438 -9.285156 23.390625 -8.921875 22.921875 -8.421875 C 20.023438 -5.203125 17.804688 -2.035156 16.265625 1.078125 C 15.929688 1.648438 15.4375 1.648438 14.78125 1.078125 C 13.4375 -0.660156 12.046875 -2.03125 10.609375 -3.03125 C 9.179688 -4.039062 7.171875 -4.804688 4.578125 -5.328125 C 4.140625 -5.378906 3.910156 -5.578125 3.890625 -5.921875 C 3.878906 -6.265625 4.023438 -6.503906 4.328125 -6.640625 C 5.023438 -6.890625 5.65625 -7.351562 6.21875 -8.03125 C 6.78125 -8.707031 7.0625 -9.828125 7.0625 -11.390625 L 7.015625 -39.140625 C 7.015625 -43.109375 6.585938 -46.234375 5.734375 -48.515625 C 4.878906 -50.796875 3.679688 -52.707031 2.140625 -54.25 Z M 2.140625 -54.25 "/></g></g></g><g fill="#f4f4f4" fill-opacity="1"><g transform="translate(231.593118, 210.095147)"><g><path d="M 14.03125 1.15625 C 13.976562 0.5 13.628906 0.00390625 12.984375 -0.328125 C 12.335938 -0.660156 11.796875 -0.992188 11.359375 -1.328125 C 8.191406 -3.472656 5.953125 -6.09375 4.640625 -9.1875 C 3.335938 -12.28125 2.601562 -15.5625 2.4375 -19.03125 C 2.101562 -26.875 4.222656 -32.847656 8.796875 -36.953125 C 10.421875 -38.410156 12.289062 -39.597656 14.40625 -40.515625 C 16.53125 -41.441406 18.707031 -42.195312 20.9375 -42.78125 C 21.625 -42.914062 22.132812 -42.570312 22.46875 -41.75 L 28.40625 -27.78125 C 28.6875 -27.039062 28.59375 -26.578125 28.125 -26.390625 L 28.03125 -26.390625 L 11.109375 -19.8125 C 10.773438 -19.65625 10.632812 -19.394531 10.6875 -19.03125 C 12.039062 -12.925781 14.300781 -9.007812 17.46875 -7.28125 C 20.632812 -5.5625 23.785156 -5.3125 26.921875 -6.53125 C 27.472656 -6.769531 27.820312 -6.722656 27.96875 -6.390625 C 28.125 -6.066406 28.023438 -5.820312 27.671875 -5.65625 C 25.429688 -4.53125 23.300781 -3.375 21.28125 -2.1875 C 19.257812 -1 17.453125 0.238281 15.859375 1.53125 C 15.609375 1.695312 15.238281 1.75 14.75 1.6875 C 14.269531 1.632812 14.03125 1.457031 14.03125 1.15625 Z M 10.203125 -22.171875 C 10.222656 -21.953125 10.316406 -21.78125 10.484375 -21.65625 C 10.648438 -21.53125 10.859375 -21.523438 11.109375 -21.640625 L 19.90625 -24.9375 C 20.3125 -25.101562 20.4375 -25.394531 20.28125 -25.8125 L 15.234375 -38.15625 C 14.984375 -38.757812 14.488281 -38.84375 13.75 -38.40625 C 12.15625 -37.46875 11.066406 -35.332031 10.484375 -32 C 9.910156 -28.664062 9.816406 -25.390625 10.203125 -22.171875 Z M 10.203125 -22.171875 "/></g></g></g><g fill="#f4f4f4" fill-opacity="1"><g transform="translate(261.003817, 210.095147)"><g><path d="M 16.015625 -51.15625 C 19.867188 -52.175781 23.40625 -51.941406 26.625 -50.453125 C 28.800781 -49.410156 30.492188 -47.96875 31.703125 -46.125 C 32.921875 -44.28125 33.40625 -42.210938 33.15625 -39.921875 C 32.90625 -37.640625 32.15625 -35.945312 30.90625 -34.84375 C 29.65625 -33.75 28.628906 -32.894531 27.828125 -32.28125 C 27.023438 -31.675781 26.269531 -31.046875 25.5625 -30.390625 C 24.15625 -29.066406 24.046875 -27.882812 25.234375 -26.84375 C 28.941406 -23.613281 31.078125 -20.898438 31.640625 -18.703125 C 32.210938 -16.503906 31.820312 -14.5625 30.46875 -12.875 C 28.601562 -10.570312 26.613281 -8.378906 24.5 -6.296875 C 22.394531 -4.210938 20.3125 -2.113281 18.25 0 C 17.226562 0.988281 16.609375 0.929688 16.390625 -0.171875 C 16.035156 -1.679688 14.414062 -3.003906 11.53125 -4.140625 C 8.65625 -5.285156 5.625 -6.382812 2.4375 -7.4375 C 1.851562 -7.65625 1.8125 -8.066406 2.3125 -8.671875 C 3.050781 -9.441406 3.820312 -10.210938 4.625 -10.984375 C 5.425781 -11.753906 6.222656 -12.507812 7.015625 -13.25 C 8.253906 -14.40625 8.675781 -15.429688 8.28125 -16.328125 C 7.882812 -17.222656 7.144531 -18.234375 6.0625 -19.359375 C 3.363281 -22.171875 2.0625 -24.800781 2.15625 -27.25 C 2.257812 -29.695312 3.148438 -31.859375 4.828125 -33.734375 C 6.398438 -35.460938 8.171875 -37.050781 10.140625 -38.5 C 12.109375 -39.945312 13.972656 -41.566406 15.734375 -43.359375 C 15.953125 -43.546875 16.238281 -43.472656 16.59375 -43.140625 C 20.28125 -39.867188 23.351562 -38.21875 25.8125 -38.1875 C 28.28125 -38.164062 29.890625 -38.894531 30.640625 -40.375 C 31.378906 -41.894531 31.304688 -43.472656 30.421875 -45.109375 C 29.546875 -46.742188 28.117188 -48.097656 26.140625 -49.171875 C 23.140625 -50.660156 19.847656 -50.800781 16.265625 -49.59375 C 15.546875 -49.3125 15.117188 -49.457031 14.984375 -50.03125 C 14.847656 -50.613281 15.191406 -50.988281 16.015625 -51.15625 Z M 9.421875 -14.078125 C 9.140625 -13.609375 9.21875 -13.25 9.65625 -13 C 11.613281 -12.09375 13.566406 -11.195312 15.515625 -10.3125 C 17.472656 -9.4375 19.441406 -8.585938 21.421875 -7.765625 C 22.804688 -7.160156 24.1875 -7.941406 25.5625 -10.109375 C 27.269531 -12.835938 25.007812 -16.421875 18.78125 -20.859375 C 17.820312 -21.429688 16.640625 -21.15625 15.234375 -20.03125 Z M 15.109375 -22.671875 C 15.441406 -22.421875 15.742188 -22.429688 16.015625 -22.703125 L 23.703125 -30.21875 C 23.953125 -30.5 24.023438 -30.753906 23.921875 -30.984375 C 23.828125 -31.222656 23.613281 -31.351562 23.28125 -31.375 C 21.71875 -31.539062 19.984375 -32.148438 18.078125 -33.203125 C 15.023438 -34.929688 13.03125 -36.097656 12.09375 -36.703125 C 11.15625 -37.304688 9.957031 -36.757812 8.5 -35.0625 C 6.65625 -32.882812 6.648438 -30.800781 8.484375 -28.8125 C 10.316406 -26.832031 12.523438 -24.785156 15.109375 -22.671875 Z M 15.109375 -22.671875 "/></g></g></g><g fill="#f4f4f4" fill-opacity="1"><g transform="translate(295.121389, 210.095147)"><g><path d="M 6.8125 -9.703125 L 6.53125 -32.328125 C 6.53125 -32.847656 6.445312 -33.273438 6.28125 -33.609375 C 5.613281 -34.679688 5.046875 -34.941406 4.578125 -34.390625 L 2.9375 -32.703125 C 2.488281 -32.203125 2.066406 -32.144531 1.671875 -32.53125 C 1.273438 -32.914062 1.335938 -33.453125 1.859375 -34.140625 C 3.066406 -35.660156 4.148438 -37.175781 5.109375 -38.6875 C 6.078125 -40.195312 7.070312 -41.695312 8.09375 -43.1875 C 8.53125 -43.707031 9.039062 -43.691406 9.625 -43.140625 C 10.78125 -41.742188 11.90625 -40.515625 13 -39.453125 C 14.101562 -38.390625 15.675781 -37.269531 17.71875 -36.09375 C 18.289062 -35.863281 18.539062 -35.597656 18.46875 -35.296875 C 18.40625 -34.992188 18.222656 -34.832031 17.921875 -34.8125 C 17.203125 -34.53125 16.566406 -34.050781 16.015625 -33.375 C 15.460938 -32.707031 15.1875 -31.585938 15.1875 -30.015625 L 15.1875 -12.546875 C 15.1875 -9.742188 15.710938 -8.023438 16.765625 -7.390625 C 17.972656 -6.671875 18.960938 -6.972656 19.734375 -8.296875 C 20.015625 -8.816406 20.351562 -8.929688 20.75 -8.640625 C 21.144531 -8.359375 21.140625 -7.882812 20.734375 -7.21875 C 19.898438 -5.925781 19.125 -4.625 18.40625 -3.3125 C 17.695312 -2.007812 16.972656 -0.710938 16.234375 0.578125 C 15.703125 1.347656 15.050781 1.515625 14.28125 1.078125 C 11.8125 -0.109375 9.945312 -1.554688 8.6875 -3.265625 C 7.4375 -4.972656 6.8125 -7.117188 6.8125 -9.703125 Z M 6.0625 -58.34375 C 9.125 -58.34375 10.515625 -56.867188 10.234375 -53.921875 C 10.078125 -52.441406 9.148438 -50.945312 7.453125 -49.4375 C 5.753906 -47.9375 4.410156 -47.203125 3.421875 -47.234375 C 2.429688 -47.234375 1.675781 -48.015625 1.15625 -49.578125 C 0.632812 -51.148438 0.425781 -52.597656 0.53125 -53.921875 C 0.613281 -55.191406 1.226562 -56.242188 2.375 -57.078125 C 3.519531 -57.921875 4.75 -58.34375 6.0625 -58.34375 Z M 17.5 -58.09375 C 20.5625 -58.09375 21.953125 -56.617188 21.671875 -53.671875 C 21.503906 -52.191406 20.570312 -50.703125 18.875 -49.203125 C 17.1875 -47.703125 15.847656 -46.960938 14.859375 -46.984375 C 13.867188 -46.984375 13.113281 -47.769531 12.59375 -49.34375 C 12.070312 -50.914062 11.863281 -52.359375 11.96875 -53.671875 C 12.050781 -54.941406 12.664062 -55.992188 13.8125 -56.828125 C 14.957031 -57.671875 16.1875 -58.09375 17.5 -58.09375 Z M 17.5 -58.09375 "/></g></g></g><g fill="#f4f4f4" fill-opacity="1"><g transform="translate(317.017621, 210.095147)"><g><path d="M 22.046875 -5.828125 C 20.640625 -4.753906 19.097656 -3.578125 17.421875 -2.296875 C 15.742188 -1.015625 14.191406 0.160156 12.765625 1.234375 C 12.265625 1.617188 11.867188 1.785156 11.578125 1.734375 C 11.285156 1.679688 11.171875 1.429688 11.234375 0.984375 C 11.234375 0.410156 10.378906 -0.6875 8.671875 -2.3125 C 4.179688 -6.519531 2.019531 -12 2.1875 -18.75 C 2.351562 -24.53125 5.035156 -29.414062 10.234375 -33.40625 C 11.835938 -34.613281 13.332031 -35.890625 14.71875 -37.234375 C 16.113281 -38.585938 17.347656 -40.226562 18.421875 -42.15625 C 18.859375 -43.007812 19.460938 -43.035156 20.234375 -42.234375 C 24.421875 -37.503906 28.601562 -34.710938 32.78125 -33.859375 C 34.101562 -33.609375 34.242188 -33.082031 33.203125 -32.28125 C 31.898438 -31.351562 31.195312 -30.203125 31.09375 -28.828125 L 31.09375 -28.734375 L 31.21875 -9.875 C 31.21875 -8.601562 31.675781 -7.734375 32.59375 -7.265625 C 33.519531 -6.796875 34.519531 -7.15625 35.59375 -8.34375 C 36.007812 -8.8125 36.398438 -8.925781 36.765625 -8.6875 C 37.140625 -8.457031 37.148438 -8.039062 36.796875 -7.4375 C 35.796875 -5.945312 34.832031 -4.484375 33.90625 -3.046875 C 32.988281 -1.617188 32.21875 -0.132812 31.59375 1.40625 L 31.546875 1.4375 C 31.160156 2.070312 30.691406 2.070312 30.140625 1.4375 C 29.835938 1.113281 29.476562 0.894531 29.0625 0.78125 C 25.925781 0.09375 23.945312 -1.984375 23.125 -5.453125 C 23.070312 -5.617188 22.929688 -5.785156 22.703125 -5.953125 C 22.460938 -5.972656 22.242188 -5.929688 22.046875 -5.828125 Z M 22.5 -30.140625 C 20.789062 -30.609375 18.796875 -31.929688 16.515625 -34.109375 C 15.410156 -35.429688 14.53125 -35.554688 13.875 -34.484375 C 10.957031 -30.128906 9.816406 -25.320312 10.453125 -20.0625 C 11.328125 -12.550781 13.96875 -7.914062 18.375 -6.15625 C 18.40625 -6.15625 18.429688 -6.140625 18.453125 -6.109375 C 19.585938 -5.753906 20.953125 -6.429688 22.546875 -8.140625 C 22.648438 -8.296875 22.703125 -8.445312 22.703125 -8.59375 C 22.679688 -9 22.671875 -9.644531 22.671875 -10.53125 L 23.046875 -29.484375 C 23.046875 -29.816406 22.863281 -30.035156 22.5 -30.140625 Z M 22.5 -30.140625 "/></g></g></g><g fill="#f4f4f4" fill-opacity="1"><g transform="translate(184.026306, 235.442389)"><g><path d="M 11.421875 -8.0625 C 11.421875 -8 11.394531 -7.96875 11.34375 -7.96875 C 11.320312 -7.96875 11.28125 -8 11.21875 -8.0625 C 11.15625 -8.125 11.097656 -8.179688 11.046875 -8.234375 C 10.867188 -8.410156 10.664062 -8.585938 10.4375 -8.765625 C 10.21875 -8.953125 9.96875 -9.125 9.6875 -9.28125 C 9.414062 -9.4375 9.109375 -9.566406 8.765625 -9.671875 C 8.429688 -9.773438 8.070312 -9.828125 7.6875 -9.828125 C 7.320312 -9.828125 7.0625 -9.78125 6.90625 -9.6875 C 6.757812 -9.59375 6.6875 -9.394531 6.6875 -9.09375 L 6.6875 -1.71875 C 6.6875 -1.332031 6.753906 -0.992188 6.890625 -0.703125 C 7.023438 -0.410156 7.28125 -0.234375 7.65625 -0.171875 C 7.8125 -0.140625 7.890625 -0.0976562 7.890625 -0.046875 C 7.890625 -0.0234375 7.875 -0.00390625 7.84375 0.015625 C 7.820312 0.0351562 7.796875 0.046875 7.765625 0.046875 C 7.734375 0.046875 7.65625 0.0390625 7.53125 0.03125 C 7.40625 0.03125 7.25 0.0234375 7.0625 0.015625 C 6.875 0.015625 6.664062 0.0078125 6.4375 0 C 6.207031 0 5.984375 0 5.765625 0 C 5.535156 0 5.3125 0 5.09375 0 C 4.875 0.0078125 4.671875 0.015625 4.484375 0.015625 C 4.304688 0.0234375 4.15625 0.03125 4.03125 0.03125 C 3.90625 0.0390625 3.828125 0.046875 3.796875 0.046875 C 3.703125 0.046875 3.65625 0.0195312 3.65625 -0.03125 C 3.65625 -0.0625 3.679688 -0.0820312 3.734375 -0.09375 C 3.796875 -0.101562 3.867188 -0.125 3.953125 -0.15625 C 4.140625 -0.238281 4.289062 -0.332031 4.40625 -0.4375 C 4.519531 -0.550781 4.609375 -0.691406 4.671875 -0.859375 C 4.742188 -1.035156 4.789062 -1.25 4.8125 -1.5 C 4.832031 -1.75 4.84375 -2.054688 4.84375 -2.421875 L 4.84375 -9.09375 C 4.84375 -9.394531 4.765625 -9.59375 4.609375 -9.6875 C 4.460938 -9.78125 4.207031 -9.828125 3.84375 -9.828125 C 3.445312 -9.828125 3.082031 -9.773438 2.75 -9.671875 C 2.414062 -9.566406 2.109375 -9.4375 1.828125 -9.28125 C 1.554688 -9.125 1.304688 -8.953125 1.078125 -8.765625 C 0.859375 -8.585938 0.660156 -8.410156 0.484375 -8.234375 C 0.429688 -8.179688 0.375 -8.125 0.3125 -8.0625 C 0.25 -8 0.207031 -7.96875 0.1875 -7.96875 C 0.132812 -7.96875 0.109375 -8 0.109375 -8.0625 C 0.109375 -8.09375 0.117188 -8.140625 0.140625 -8.203125 C 0.171875 -8.265625 0.195312 -8.34375 0.21875 -8.4375 L 0.734375 -10.21875 L 10.796875 -10.21875 L 11.3125 -8.4375 C 11.332031 -8.34375 11.351562 -8.265625 11.375 -8.203125 C 11.40625 -8.140625 11.421875 -8.09375 11.421875 -8.0625 Z M 11.421875 -8.0625 "/></g></g></g><g fill="#f4f4f4" fill-opacity="1"><g transform="translate(195.553469, 235.442389)"><g><path d="M 12.453125 -0.03125 C 12.453125 0.0195312 12.378906 0.046875 12.234375 0.046875 C 12.179688 0.046875 11.984375 0.0351562 11.640625 0.015625 C 11.304688 0.00390625 10.90625 0 10.4375 0 C 9.78125 0 9.304688 0.00390625 9.015625 0.015625 C 8.734375 0.0351562 8.566406 0.046875 8.515625 0.046875 C 8.410156 0.046875 8.359375 0.03125 8.359375 0 C 8.359375 -0.0507812 8.425781 -0.09375 8.5625 -0.125 C 8.738281 -0.1875 8.851562 -0.289062 8.90625 -0.4375 C 8.96875 -0.582031 9 -0.753906 9 -0.953125 C 9 -1.109375 8.925781 -1.351562 8.78125 -1.6875 C 8.632812 -2.03125 8.46875 -2.394531 8.28125 -2.78125 L 7.375 -4.65625 L 3.578125 -4.65625 L 2.71875 -2.984375 C 2.5625 -2.710938 2.425781 -2.421875 2.3125 -2.109375 C 2.207031 -1.804688 2.15625 -1.492188 2.15625 -1.171875 C 2.15625 -0.828125 2.242188 -0.585938 2.421875 -0.453125 C 2.609375 -0.328125 2.804688 -0.222656 3.015625 -0.140625 C 3.128906 -0.109375 3.1875 -0.0703125 3.1875 -0.03125 C 3.1875 0.0195312 3.125 0.046875 3 0.046875 C 2.945312 0.046875 2.785156 0.0351562 2.515625 0.015625 C 2.242188 0.00390625 1.882812 0 1.4375 0 C 1.113281 0 0.847656 0.00390625 0.640625 0.015625 C 0.429688 0.0351562 0.28125 0.046875 0.1875 0.046875 C 0.0507812 0.046875 -0.015625 0.0195312 -0.015625 -0.03125 C -0.015625 -0.0820312 0.0195312 -0.125 0.09375 -0.15625 C 0.164062 -0.195312 0.226562 -0.238281 0.28125 -0.28125 C 0.445312 -0.414062 0.617188 -0.585938 0.796875 -0.796875 C 0.972656 -1.015625 1.144531 -1.242188 1.3125 -1.484375 C 1.488281 -1.722656 1.648438 -1.960938 1.796875 -2.203125 C 1.941406 -2.441406 2.054688 -2.644531 2.140625 -2.8125 L 6.046875 -10.40625 C 6.097656 -10.5 6.132812 -10.546875 6.15625 -10.546875 L 6.203125 -10.546875 C 6.242188 -10.546875 6.285156 -10.5 6.328125 -10.40625 L 11.015625 -1.625 C 11.148438 -1.382812 11.300781 -1.148438 11.46875 -0.921875 C 11.632812 -0.691406 11.84375 -0.484375 12.09375 -0.296875 C 12.175781 -0.234375 12.253906 -0.179688 12.328125 -0.140625 C 12.410156 -0.109375 12.453125 -0.0703125 12.453125 -0.03125 Z M 5.46875 -8.390625 L 3.78125 -5.0625 L 7.171875 -5.0625 Z M 5.46875 -8.390625 "/></g></g></g><g fill="#f4f4f4" fill-opacity="1"><g transform="translate(207.97471, 235.442389)"><g><path d="M 11.421875 -8.0625 C 11.421875 -8 11.394531 -7.96875 11.34375 -7.96875 C 11.320312 -7.96875 11.28125 -8 11.21875 -8.0625 C 11.15625 -8.125 11.097656 -8.179688 11.046875 -8.234375 C 10.867188 -8.410156 10.664062 -8.585938 10.4375 -8.765625 C 10.21875 -8.953125 9.96875 -9.125 9.6875 -9.28125 C 9.414062 -9.4375 9.109375 -9.566406 8.765625 -9.671875 C 8.429688 -9.773438 8.070312 -9.828125 7.6875 -9.828125 C 7.320312 -9.828125 7.0625 -9.78125 6.90625 -9.6875 C 6.757812 -9.59375 6.6875 -9.394531 6.6875 -9.09375 L 6.6875 -1.71875 C 6.6875 -1.332031 6.753906 -0.992188 6.890625 -0.703125 C 7.023438 -0.410156 7.28125 -0.234375 7.65625 -0.171875 C 7.8125 -0.140625 7.890625 -0.0976562 7.890625 -0.046875 C 7.890625 -0.0234375 7.875 -0.00390625 7.84375 0.015625 C 7.820312 0.0351562 7.796875 0.046875 7.765625 0.046875 C 7.734375 0.046875 7.65625 0.0390625 7.53125 0.03125 C 7.40625 0.03125 7.25 0.0234375 7.0625 0.015625 C 6.875 0.015625 6.664062 0.0078125 6.4375 0 C 6.207031 0 5.984375 0 5.765625 0 C 5.535156 0 5.3125 0 5.09375 0 C 4.875 0.0078125 4.671875 0.015625 4.484375 0.015625 C 4.304688 0.0234375 4.15625 0.03125 4.03125 0.03125 C 3.90625 0.0390625 3.828125 0.046875 3.796875 0.046875 C 3.703125 0.046875 3.65625 0.0195312 3.65625 -0.03125 C 3.65625 -0.0625 3.679688 -0.0820312 3.734375 -0.09375 C 3.796875 -0.101562 3.867188 -0.125 3.953125 -0.15625 C 4.140625 -0.238281 4.289062 -0.332031 4.40625 -0.4375 C 4.519531 -0.550781 4.609375 -0.691406 4.671875 -0.859375 C 4.742188 -1.035156 4.789062 -1.25 4.8125 -1.5 C 4.832031 -1.75 4.84375 -2.054688 4.84375 -2.421875 L 4.84375 -9.09375 C 4.84375 -9.394531 4.765625 -9.59375 4.609375 -9.6875 C 4.460938 -9.78125 4.207031 -9.828125 3.84375 -9.828125 C 3.445312 -9.828125 3.082031 -9.773438 2.75 -9.671875 C 2.414062 -9.566406 2.109375 -9.4375 1.828125 -9.28125 C 1.554688 -9.125 1.304688 -8.953125 1.078125 -8.765625 C 0.859375 -8.585938 0.660156 -8.410156 0.484375 -8.234375 C 0.429688 -8.179688 0.375 -8.125 0.3125 -8.0625 C 0.25 -8 0.207031 -7.96875 0.1875 -7.96875 C 0.132812 -7.96875 0.109375 -8 0.109375 -8.0625 C 0.109375 -8.09375 0.117188 -8.140625 0.140625 -8.203125 C 0.171875 -8.265625 0.195312 -8.34375 0.21875 -8.4375 L 0.734375 -10.21875 L 10.796875 -10.21875 L 11.3125 -8.4375 C 11.332031 -8.34375 11.351562 -8.265625 11.375 -8.203125 C 11.40625 -8.140625 11.421875 -8.09375 11.421875 -8.0625 Z M 11.421875 -8.0625 "/></g></g></g><g fill="#f4f4f4" fill-opacity="1"><g transform="translate(219.501873, 235.442389)"><g><path d="M 11.421875 -8.0625 C 11.421875 -8 11.394531 -7.96875 11.34375 -7.96875 C 11.320312 -7.96875 11.28125 -8 11.21875 -8.0625 C 11.15625 -8.125 11.097656 -8.179688 11.046875 -8.234375 C 10.867188 -8.410156 10.664062 -8.585938 10.4375 -8.765625 C 10.21875 -8.953125 9.96875 -9.125 9.6875 -9.28125 C 9.414062 -9.4375 9.109375 -9.566406 8.765625 -9.671875 C 8.429688 -9.773438 8.070312 -9.828125 7.6875 -9.828125 C 7.320312 -9.828125 7.0625 -9.78125 6.90625 -9.6875 C 6.757812 -9.59375 6.6875 -9.394531 6.6875 -9.09375 L 6.6875 -1.71875 C 6.6875 -1.332031 6.753906 -0.992188 6.890625 -0.703125 C 7.023438 -0.410156 7.28125 -0.234375 7.65625 -0.171875 C 7.8125 -0.140625 7.890625 -0.0976562 7.890625 -0.046875 C 7.890625 -0.0234375 7.875 -0.00390625 7.84375 0.015625 C 7.820312 0.0351562 7.796875 0.046875 7.765625 0.046875 C 7.734375 0.046875 7.65625 0.0390625 7.53125 0.03125 C 7.40625 0.03125 7.25 0.0234375 7.0625 0.015625 C 6.875 0.015625 6.664062 0.0078125 6.4375 0 C 6.207031 0 5.984375 0 5.765625 0 C 5.535156 0 5.3125 0 5.09375 0 C 4.875 0.0078125 4.671875 0.015625 4.484375 0.015625 C 4.304688 0.0234375 4.15625 0.03125 4.03125 0.03125 C 3.90625 0.0390625 3.828125 0.046875 3.796875 0.046875 C 3.703125 0.046875 3.65625 0.0195312 3.65625 -0.03125 C 3.65625 -0.0625 3.679688 -0.0820312 3.734375 -0.09375 C 3.796875 -0.101562 3.867188 -0.125 3.953125 -0.15625 C 4.140625 -0.238281 4.289062 -0.332031 4.40625 -0.4375 C 4.519531 -0.550781 4.609375 -0.691406 4.671875 -0.859375 C 4.742188 -1.035156 4.789062 -1.25 4.8125 -1.5 C 4.832031 -1.75 4.84375 -2.054688 4.84375 -2.421875 L 4.84375 -9.09375 C 4.84375 -9.394531 4.765625 -9.59375 4.609375 -9.6875 C 4.460938 -9.78125 4.207031 -9.828125 3.84375 -9.828125 C 3.445312 -9.828125 3.082031 -9.773438 2.75 -9.671875 C 2.414062 -9.566406 2.109375 -9.4375 1.828125 -9.28125 C 1.554688 -9.125 1.304688 -8.953125 1.078125 -8.765625 C 0.859375 -8.585938 0.660156 -8.410156 0.484375 -8.234375 C 0.429688 -8.179688 0.375 -8.125 0.3125 -8.0625 C 0.25 -8 0.207031 -7.96875 0.1875 -7.96875 C 0.132812 -7.96875 0.109375 -8 0.109375 -8.0625 C 0.109375 -8.09375 0.117188 -8.140625 0.140625 -8.203125 C 0.171875 -8.265625 0.195312 -8.34375 0.21875 -8.4375 L 0.734375 -10.21875 L 10.796875 -10.21875 L 11.3125 -8.4375 C 11.332031 -8.34375 11.351562 -8.265625 11.375 -8.203125 C 11.40625 -8.140625 11.421875 -8.09375 11.421875 -8.0625 Z M 11.421875 -8.0625 "/></g></g></g><g fill="#f4f4f4" fill-opacity="1"><g transform="translate(231.029037, 235.442389)"><g><path d="M 12.671875 -5.109375 C 12.671875 -4.285156 12.503906 -3.539062 12.171875 -2.875 C 11.835938 -2.207031 11.390625 -1.632812 10.828125 -1.15625 C 10.273438 -0.6875 9.632812 -0.320312 8.90625 -0.0625 C 8.1875 0.1875 7.429688 0.3125 6.640625 0.3125 C 5.867188 0.3125 5.117188 0.1875 4.390625 -0.0625 C 3.660156 -0.320312 3.015625 -0.6875 2.453125 -1.15625 C 1.890625 -1.632812 1.441406 -2.207031 1.109375 -2.875 C 0.773438 -3.539062 0.609375 -4.285156 0.609375 -5.109375 C 0.609375 -5.929688 0.773438 -6.675781 1.109375 -7.34375 C 1.441406 -8.019531 1.890625 -8.59375 2.453125 -9.0625 C 3.015625 -9.53125 3.660156 -9.894531 4.390625 -10.15625 C 5.117188 -10.414062 5.867188 -10.546875 6.640625 -10.546875 C 7.429688 -10.546875 8.1875 -10.414062 8.90625 -10.15625 C 9.632812 -9.894531 10.273438 -9.53125 10.828125 -9.0625 C 11.390625 -8.59375 11.835938 -8.019531 12.171875 -7.34375 C 12.503906 -6.675781 12.671875 -5.929688 12.671875 -5.109375 Z M 10.546875 -5.109375 C 10.546875 -5.703125 10.476562 -6.296875 10.34375 -6.890625 C 10.207031 -7.492188 9.988281 -8.035156 9.6875 -8.515625 C 9.382812 -8.992188 8.984375 -9.382812 8.484375 -9.6875 C 7.984375 -9.988281 7.367188 -10.140625 6.640625 -10.140625 C 5.921875 -10.140625 5.3125 -9.988281 4.8125 -9.6875 C 4.3125 -9.382812 3.90625 -8.992188 3.59375 -8.515625 C 3.289062 -8.035156 3.070312 -7.492188 2.9375 -6.890625 C 2.8125 -6.296875 2.75 -5.703125 2.75 -5.109375 C 2.75 -4.515625 2.8125 -3.914062 2.9375 -3.3125 C 3.070312 -2.71875 3.289062 -2.179688 3.59375 -1.703125 C 3.90625 -1.222656 4.3125 -0.832031 4.8125 -0.53125 C 5.3125 -0.226562 5.921875 -0.078125 6.640625 -0.078125 C 7.367188 -0.078125 7.984375 -0.226562 8.484375 -0.53125 C 8.984375 -0.832031 9.382812 -1.222656 9.6875 -1.703125 C 9.988281 -2.179688 10.207031 -2.71875 10.34375 -3.3125 C 10.476562 -3.914062 10.546875 -4.515625 10.546875 -5.109375 Z M 10.546875 -5.109375 "/></g></g></g><g fill="#f4f4f4" fill-opacity="1"><g transform="translate(244.328384, 235.442389)"><g><path d="M 12.671875 -5.109375 C 12.671875 -4.285156 12.503906 -3.539062 12.171875 -2.875 C 11.835938 -2.207031 11.390625 -1.632812 10.828125 -1.15625 C 10.273438 -0.6875 9.632812 -0.320312 8.90625 -0.0625 C 8.1875 0.1875 7.429688 0.3125 6.640625 0.3125 C 5.867188 0.3125 5.117188 0.1875 4.390625 -0.0625 C 3.660156 -0.320312 3.015625 -0.6875 2.453125 -1.15625 C 1.890625 -1.632812 1.441406 -2.207031 1.109375 -2.875 C 0.773438 -3.539062 0.609375 -4.285156 0.609375 -5.109375 C 0.609375 -5.929688 0.773438 -6.675781 1.109375 -7.34375 C 1.441406 -8.019531 1.890625 -8.59375 2.453125 -9.0625 C 3.015625 -9.53125 3.660156 -9.894531 4.390625 -10.15625 C 5.117188 -10.414062 5.867188 -10.546875 6.640625 -10.546875 C 7.429688 -10.546875 8.1875 -10.414062 8.90625 -10.15625 C 9.632812 -9.894531 10.273438 -9.53125 10.828125 -9.0625 C 11.390625 -8.59375 11.835938 -8.019531 12.171875 -7.34375 C 12.503906 -6.675781 12.671875 -5.929688 12.671875 -5.109375 Z M 10.546875 -5.109375 C 10.546875 -5.703125 10.476562 -6.296875 10.34375 -6.890625 C 10.207031 -7.492188 9.988281 -8.035156 9.6875 -8.515625 C 9.382812 -8.992188 8.984375 -9.382812 8.484375 -9.6875 C 7.984375 -9.988281 7.367188 -10.140625 6.640625 -10.140625 C 5.921875 -10.140625 5.3125 -9.988281 4.8125 -9.6875 C 4.3125 -9.382812 3.90625 -8.992188 3.59375 -8.515625 C 3.289062 -8.035156 3.070312 -7.492188 2.9375 -6.890625 C 2.8125 -6.296875 2.75 -5.703125 2.75 -5.109375 C 2.75 -4.515625 2.8125 -3.914062 2.9375 -3.3125 C 3.070312 -2.71875 3.289062 -2.179688 3.59375 -1.703125 C 3.90625 -1.222656 4.3125 -0.832031 4.8125 -0.53125 C 5.3125 -0.226562 5.921875 -0.078125 6.640625 -0.078125 C 7.367188 -0.078125 7.984375 -0.226562 8.484375 -0.53125 C 8.984375 -0.832031 9.382812 -1.222656 9.6875 -1.703125 C 9.988281 -2.179688 10.207031 -2.71875 10.34375 -3.3125 C 10.476562 -3.914062 10.546875 -4.515625 10.546875 -5.109375 Z M 10.546875 -5.109375 "/></g></g></g><g fill="#f4f4f4" fill-opacity="1"><g transform="translate(257.627731, 235.442389)"><g/></g></g><g fill="#f4f4f4" fill-opacity="1"><g transform="translate(262.800589, 235.442389)"><g><path d="M 12.453125 -0.03125 C 12.453125 0.0195312 12.378906 0.046875 12.234375 0.046875 C 12.179688 0.046875 11.984375 0.0351562 11.640625 0.015625 C 11.304688 0.00390625 10.90625 0 10.4375 0 C 9.78125 0 9.304688 0.00390625 9.015625 0.015625 C 8.734375 0.0351562 8.566406 0.046875 8.515625 0.046875 C 8.410156 0.046875 8.359375 0.03125 8.359375 0 C 8.359375 -0.0507812 8.425781 -0.09375 8.5625 -0.125 C 8.738281 -0.1875 8.851562 -0.289062 8.90625 -0.4375 C 8.96875 -0.582031 9 -0.753906 9 -0.953125 C 9 -1.109375 8.925781 -1.351562 8.78125 -1.6875 C 8.632812 -2.03125 8.46875 -2.394531 8.28125 -2.78125 L 7.375 -4.65625 L 3.578125 -4.65625 L 2.71875 -2.984375 C 2.5625 -2.710938 2.425781 -2.421875 2.3125 -2.109375 C 2.207031 -1.804688 2.15625 -1.492188 2.15625 -1.171875 C 2.15625 -0.828125 2.242188 -0.585938 2.421875 -0.453125 C 2.609375 -0.328125 2.804688 -0.222656 3.015625 -0.140625 C 3.128906 -0.109375 3.1875 -0.0703125 3.1875 -0.03125 C 3.1875 0.0195312 3.125 0.046875 3 0.046875 C 2.945312 0.046875 2.785156 0.0351562 2.515625 0.015625 C 2.242188 0.00390625 1.882812 0 1.4375 0 C 1.113281 0 0.847656 0.00390625 0.640625 0.015625 C 0.429688 0.0351562 0.28125 0.046875 0.1875 0.046875 C 0.0507812 0.046875 -0.015625 0.0195312 -0.015625 -0.03125 C -0.015625 -0.0820312 0.0195312 -0.125 0.09375 -0.15625 C 0.164062 -0.195312 0.226562 -0.238281 0.28125 -0.28125 C 0.445312 -0.414062 0.617188 -0.585938 0.796875 -0.796875 C 0.972656 -1.015625 1.144531 -1.242188 1.3125 -1.484375 C 1.488281 -1.722656 1.648438 -1.960938 1.796875 -2.203125 C 1.941406 -2.441406 2.054688 -2.644531 2.140625 -2.8125 L 6.046875 -10.40625 C 6.097656 -10.5 6.132812 -10.546875 6.15625 -10.546875 L 6.203125 -10.546875 C 6.242188 -10.546875 6.285156 -10.5 6.328125 -10.40625 L 11.015625 -1.625 C 11.148438 -1.382812 11.300781 -1.148438 11.46875 -0.921875 C 11.632812 -0.691406 11.84375 -0.484375 12.09375 -0.296875 C 12.175781 -0.234375 12.253906 -0.179688 12.328125 -0.140625 C 12.410156 -0.109375 12.453125 -0.0703125 12.453125 -0.03125 Z M 5.46875 -8.390625 L 3.78125 -5.0625 L 7.171875 -5.0625 Z M 5.46875 -8.390625 "/></g></g></g><g fill="#f4f4f4" fill-opacity="1"><g transform="translate(275.22183, 235.442389)"><g><path d="M 12.078125 -0.03125 C 12.078125 -0.0195312 12.039062 -0.0078125 11.96875 0 C 11.894531 0 11.726562 0 11.46875 0 L 9.359375 0 L 8.59375 -2.09375 C 8.414062 -2.570312 8.253906 -2.992188 8.109375 -3.359375 C 7.960938 -3.734375 7.785156 -4.050781 7.578125 -4.3125 C 7.378906 -4.570312 7.128906 -4.773438 6.828125 -4.921875 C 6.523438 -5.066406 6.125 -5.144531 5.625 -5.15625 L 3.296875 -5.21875 L 3.296875 -1.71875 C 3.296875 -1.332031 3.351562 -1.003906 3.46875 -0.734375 C 3.582031 -0.472656 3.785156 -0.28125 4.078125 -0.15625 C 4.222656 -0.0820312 4.296875 -0.0390625 4.296875 -0.03125 C 4.296875 -0.0078125 4.238281 0 4.125 0 L 0.5625 0 C 0.476562 0 0.4375 -0.0078125 0.4375 -0.03125 C 0.4375 -0.0390625 0.519531 -0.0820312 0.6875 -0.15625 C 1 -0.320312 1.203125 -0.523438 1.296875 -0.765625 C 1.390625 -1.015625 1.4375 -1.332031 1.4375 -1.71875 L 1.4375 -8.4375 C 1.4375 -8.550781 1.429688 -8.679688 1.421875 -8.828125 C 1.410156 -8.984375 1.382812 -9.132812 1.34375 -9.28125 C 1.3125 -9.425781 1.25 -9.5625 1.15625 -9.6875 C 1.070312 -9.8125 0.953125 -9.898438 0.796875 -9.953125 C 0.710938 -9.984375 0.632812 -10.003906 0.5625 -10.015625 C 0.5 -10.035156 0.46875 -10.070312 0.46875 -10.125 C 0.46875 -10.15625 0.488281 -10.175781 0.53125 -10.1875 C 0.570312 -10.207031 0.648438 -10.21875 0.765625 -10.21875 L 6.734375 -10.21875 C 8.222656 -10.21875 9.296875 -10.003906 9.953125 -9.578125 C 10.609375 -9.148438 10.9375 -8.582031 10.9375 -7.875 C 10.9375 -7.320312 10.789062 -6.878906 10.5 -6.546875 C 10.207031 -6.222656 9.84375 -5.972656 9.40625 -5.796875 C 8.976562 -5.628906 8.515625 -5.515625 8.015625 -5.453125 C 7.515625 -5.398438 7.054688 -5.375 6.640625 -5.375 L 6.640625 -5.34375 C 7.046875 -5.300781 7.441406 -5.226562 7.828125 -5.125 C 8.210938 -5.019531 8.566406 -4.875 8.890625 -4.6875 C 9.222656 -4.5 9.515625 -4.257812 9.765625 -3.96875 C 10.015625 -3.6875 10.207031 -3.335938 10.34375 -2.921875 C 10.4375 -2.648438 10.539062 -2.363281 10.65625 -2.0625 C 10.78125 -1.769531 10.90625 -1.492188 11.03125 -1.234375 C 11.15625 -0.984375 11.28125 -0.765625 11.40625 -0.578125 C 11.539062 -0.390625 11.671875 -0.273438 11.796875 -0.234375 C 11.867188 -0.179688 11.929688 -0.140625 11.984375 -0.109375 C 12.046875 -0.0859375 12.078125 -0.0625 12.078125 -0.03125 Z M 8.796875 -7.78125 C 8.796875 -8.375 8.585938 -8.863281 8.171875 -9.25 C 7.765625 -9.632812 7.140625 -9.828125 6.296875 -9.828125 L 3.296875 -9.828125 L 3.296875 -5.625 L 6.1875 -5.625 C 6.613281 -5.625 6.988281 -5.679688 7.3125 -5.796875 C 7.644531 -5.921875 7.921875 -6.082031 8.140625 -6.28125 C 8.359375 -6.488281 8.519531 -6.722656 8.625 -6.984375 C 8.738281 -7.242188 8.796875 -7.507812 8.796875 -7.78125 Z M 8.796875 -7.78125 "/></g></g></g><g fill="#f4f4f4" fill-opacity="1"><g transform="translate(287.339717, 235.442389)"><g><path d="M 11.421875 -8.0625 C 11.421875 -8 11.394531 -7.96875 11.34375 -7.96875 C 11.320312 -7.96875 11.28125 -8 11.21875 -8.0625 C 11.15625 -8.125 11.097656 -8.179688 11.046875 -8.234375 C 10.867188 -8.410156 10.664062 -8.585938 10.4375 -8.765625 C 10.21875 -8.953125 9.96875 -9.125 9.6875 -9.28125 C 9.414062 -9.4375 9.109375 -9.566406 8.765625 -9.671875 C 8.429688 -9.773438 8.070312 -9.828125 7.6875 -9.828125 C 7.320312 -9.828125 7.0625 -9.78125 6.90625 -9.6875 C 6.757812 -9.59375 6.6875 -9.394531 6.6875 -9.09375 L 6.6875 -1.71875 C 6.6875 -1.332031 6.753906 -0.992188 6.890625 -0.703125 C 7.023438 -0.410156 7.28125 -0.234375 7.65625 -0.171875 C 7.8125 -0.140625 7.890625 -0.0976562 7.890625 -0.046875 C 7.890625 -0.0234375 7.875 -0.00390625 7.84375 0.015625 C 7.820312 0.0351562 7.796875 0.046875 7.765625 0.046875 C 7.734375 0.046875 7.65625 0.0390625 7.53125 0.03125 C 7.40625 0.03125 7.25 0.0234375 7.0625 0.015625 C 6.875 0.015625 6.664062 0.0078125 6.4375 0 C 6.207031 0 5.984375 0 5.765625 0 C 5.535156 0 5.3125 0 5.09375 0 C 4.875 0.0078125 4.671875 0.015625 4.484375 0.015625 C 4.304688 0.0234375 4.15625 0.03125 4.03125 0.03125 C 3.90625 0.0390625 3.828125 0.046875 3.796875 0.046875 C 3.703125 0.046875 3.65625 0.0195312 3.65625 -0.03125 C 3.65625 -0.0625 3.679688 -0.0820312 3.734375 -0.09375 C 3.796875 -0.101562 3.867188 -0.125 3.953125 -0.15625 C 4.140625 -0.238281 4.289062 -0.332031 4.40625 -0.4375 C 4.519531 -0.550781 4.609375 -0.691406 4.671875 -0.859375 C 4.742188 -1.035156 4.789062 -1.25 4.8125 -1.5 C 4.832031 -1.75 4.84375 -2.054688 4.84375 -2.421875 L 4.84375 -9.09375 C 4.84375 -9.394531 4.765625 -9.59375 4.609375 -9.6875 C 4.460938 -9.78125 4.207031 -9.828125 3.84375 -9.828125 C 3.445312 -9.828125 3.082031 -9.773438 2.75 -9.671875 C 2.414062 -9.566406 2.109375 -9.4375 1.828125 -9.28125 C 1.554688 -9.125 1.304688 -8.953125 1.078125 -8.765625 C 0.859375 -8.585938 0.660156 -8.410156 0.484375 -8.234375 C 0.429688 -8.179688 0.375 -8.125 0.3125 -8.0625 C 0.25 -8 0.207031 -7.96875 0.1875 -7.96875 C 0.132812 -7.96875 0.109375 -8 0.109375 -8.0625 C 0.109375 -8.09375 0.117188 -8.140625 0.140625 -8.203125 C 0.171875 -8.265625 0.195312 -8.34375 0.21875 -8.4375 L 0.734375 -10.21875 L 10.796875 -10.21875 L 11.3125 -8.4375 C 11.332031 -8.34375 11.351562 -8.265625 11.375 -8.203125 C 11.40625 -8.140625 11.421875 -8.09375 11.421875 -8.0625 Z M 11.421875 -8.0625 "/></g></g></g><g fill="#f4f4f4" fill-opacity="1"><g transform="translate(298.866881, 235.442389)"><g><path d="M 4.390625 -0.03125 C 4.390625 -0.0078125 4.363281 0.00390625 4.3125 0.015625 C 4.257812 0.0351562 4.210938 0.046875 4.171875 0.046875 C 3.828125 0.046875 3.523438 0.0351562 3.265625 0.015625 C 3.015625 0.00390625 2.710938 0 2.359375 0 C 2.015625 0 1.707031 0.00390625 1.4375 0.015625 C 1.175781 0.0351562 0.882812 0.046875 0.5625 0.046875 C 0.519531 0.046875 0.476562 0.0390625 0.4375 0.03125 C 0.394531 0.0195312 0.375 0 0.375 -0.03125 C 0.375 -0.0820312 0.40625 -0.113281 0.46875 -0.125 C 0.539062 -0.132812 0.613281 -0.15625 0.6875 -0.1875 C 1 -0.351562 1.203125 -0.578125 1.296875 -0.859375 C 1.390625 -1.148438 1.4375 -1.492188 1.4375 -1.890625 L 1.4375 -8.8125 C 1.4375 -9.195312 1.382812 -9.488281 1.28125 -9.6875 C 1.175781 -9.882812 1.019531 -10.007812 0.8125 -10.0625 C 0.78125 -10.070312 0.742188 -10.082031 0.703125 -10.09375 C 0.660156 -10.113281 0.640625 -10.132812 0.640625 -10.15625 C 0.640625 -10.175781 0.648438 -10.203125 0.671875 -10.234375 C 0.703125 -10.265625 0.753906 -10.28125 0.828125 -10.28125 C 0.847656 -10.28125 0.914062 -10.273438 1.03125 -10.265625 C 1.15625 -10.265625 1.289062 -10.257812 1.4375 -10.25 C 1.59375 -10.238281 1.753906 -10.226562 1.921875 -10.21875 C 2.085938 -10.21875 2.234375 -10.21875 2.359375 -10.21875 C 2.492188 -10.21875 2.632812 -10.21875 2.78125 -10.21875 C 2.925781 -10.226562 3.066406 -10.238281 3.203125 -10.25 C 3.335938 -10.257812 3.453125 -10.265625 3.546875 -10.265625 C 3.648438 -10.273438 3.710938 -10.28125 3.734375 -10.28125 C 3.773438 -10.28125 3.820312 -10.269531 3.875 -10.25 C 3.925781 -10.238281 3.953125 -10.207031 3.953125 -10.15625 C 3.953125 -10.125 3.921875 -10.09375 3.859375 -10.0625 C 3.804688 -10.039062 3.753906 -10.015625 3.703125 -9.984375 C 3.609375 -9.921875 3.515625 -9.820312 3.421875 -9.6875 C 3.335938 -9.5625 3.296875 -9.367188 3.296875 -9.109375 L 3.296875 -1.71875 C 3.296875 -1.28125 3.359375 -0.945312 3.484375 -0.71875 C 3.617188 -0.488281 3.832031 -0.304688 4.125 -0.171875 C 4.207031 -0.128906 4.269531 -0.109375 4.3125 -0.109375 C 4.363281 -0.109375 4.390625 -0.0820312 4.390625 -0.03125 Z M 4.390625 -0.03125 "/></g></g></g><g fill="#f4f4f4" fill-opacity="1"><g transform="translate(303.592694, 235.442389)"><g><path d="M 10.1875 -3.34375 C 10.1875 -2.632812 10.023438 -2.046875 9.703125 -1.578125 C 9.378906 -1.109375 8.960938 -0.734375 8.453125 -0.453125 C 7.941406 -0.171875 7.375 0.0234375 6.75 0.140625 C 6.132812 0.253906 5.539062 0.3125 4.96875 0.3125 C 4.5 0.3125 4.070312 0.289062 3.6875 0.25 C 3.300781 0.21875 2.929688 0.160156 2.578125 0.078125 C 2.234375 0.00390625 1.875 -0.0859375 1.5 -0.203125 C 1.132812 -0.328125 0.734375 -0.46875 0.296875 -0.625 L 0.8125 -2.515625 C 0.851562 -2.671875 0.878906 -2.769531 0.890625 -2.8125 C 0.910156 -2.851562 0.941406 -2.875 0.984375 -2.875 C 1.035156 -2.875 1.078125 -2.804688 1.109375 -2.671875 C 1.160156 -2.273438 1.316406 -1.914062 1.578125 -1.59375 C 1.835938 -1.28125 2.144531 -1.007812 2.5 -0.78125 C 2.863281 -0.5625 3.253906 -0.390625 3.671875 -0.265625 C 4.097656 -0.140625 4.492188 -0.078125 4.859375 -0.078125 C 5.234375 -0.078125 5.628906 -0.109375 6.046875 -0.171875 C 6.472656 -0.234375 6.859375 -0.347656 7.203125 -0.515625 C 7.554688 -0.691406 7.84375 -0.929688 8.0625 -1.234375 C 8.289062 -1.546875 8.40625 -1.941406 8.40625 -2.421875 C 8.40625 -2.867188 8.304688 -3.210938 8.109375 -3.453125 C 7.910156 -3.703125 7.660156 -3.890625 7.359375 -4.015625 C 7.054688 -4.140625 6.722656 -4.222656 6.359375 -4.265625 C 5.992188 -4.316406 5.644531 -4.363281 5.3125 -4.40625 C 4.882812 -4.46875 4.410156 -4.546875 3.890625 -4.640625 C 3.367188 -4.742188 2.878906 -4.894531 2.421875 -5.09375 C 1.972656 -5.289062 1.59375 -5.5625 1.28125 -5.90625 C 0.976562 -6.257812 0.828125 -6.71875 0.828125 -7.28125 C 0.828125 -7.9375 0.972656 -8.472656 1.265625 -8.890625 C 1.554688 -9.316406 1.929688 -9.648438 2.390625 -9.890625 C 2.847656 -10.128906 3.359375 -10.296875 3.921875 -10.390625 C 4.492188 -10.492188 5.050781 -10.546875 5.59375 -10.546875 C 6.289062 -10.546875 6.976562 -10.488281 7.65625 -10.375 C 8.34375 -10.269531 9.015625 -10.097656 9.671875 -9.859375 L 9.234375 -8.3125 C 9.191406 -8.1875 9.160156 -8.097656 9.140625 -8.046875 C 9.117188 -8.003906 9.09375 -7.984375 9.0625 -7.984375 C 9.039062 -7.984375 9.015625 -8.015625 8.984375 -8.078125 C 8.890625 -8.359375 8.75 -8.625 8.5625 -8.875 C 8.382812 -9.125 8.15625 -9.34375 7.875 -9.53125 C 7.601562 -9.71875 7.28125 -9.863281 6.90625 -9.96875 C 6.53125 -10.082031 6.097656 -10.140625 5.609375 -10.140625 C 5.285156 -10.140625 4.945312 -10.113281 4.59375 -10.0625 C 4.25 -10.019531 3.925781 -9.929688 3.625 -9.796875 C 3.332031 -9.660156 3.09375 -9.46875 2.90625 -9.21875 C 2.71875 -8.96875 2.625 -8.640625 2.625 -8.234375 C 2.625 -7.753906 2.734375 -7.382812 2.953125 -7.125 C 3.171875 -6.863281 3.46875 -6.664062 3.84375 -6.53125 C 4.226562 -6.40625 4.679688 -6.3125 5.203125 -6.25 C 5.722656 -6.1875 6.289062 -6.113281 6.90625 -6.03125 C 7.613281 -5.9375 8.179688 -5.789062 8.609375 -5.59375 C 9.046875 -5.394531 9.378906 -5.171875 9.609375 -4.921875 C 9.847656 -4.671875 10.003906 -4.40625 10.078125 -4.125 C 10.148438 -3.851562 10.1875 -3.59375 10.1875 -3.34375 Z M 10.1875 -3.34375 "/></g></g></g><g fill="#f4f4f4" fill-opacity="1"><g transform="translate(314.529134, 235.442389)"><g><path d="M 11.421875 -8.0625 C 11.421875 -8 11.394531 -7.96875 11.34375 -7.96875 C 11.320312 -7.96875 11.28125 -8 11.21875 -8.0625 C 11.15625 -8.125 11.097656 -8.179688 11.046875 -8.234375 C 10.867188 -8.410156 10.664062 -8.585938 10.4375 -8.765625 C 10.21875 -8.953125 9.96875 -9.125 9.6875 -9.28125 C 9.414062 -9.4375 9.109375 -9.566406 8.765625 -9.671875 C 8.429688 -9.773438 8.070312 -9.828125 7.6875 -9.828125 C 7.320312 -9.828125 7.0625 -9.78125 6.90625 -9.6875 C 6.757812 -9.59375 6.6875 -9.394531 6.6875 -9.09375 L 6.6875 -1.71875 C 6.6875 -1.332031 6.753906 -0.992188 6.890625 -0.703125 C 7.023438 -0.410156 7.28125 -0.234375 7.65625 -0.171875 C 7.8125 -0.140625 7.890625 -0.0976562 7.890625 -0.046875 C 7.890625 -0.0234375 7.875 -0.00390625 7.84375 0.015625 C 7.820312 0.0351562 7.796875 0.046875 7.765625 0.046875 C 7.734375 0.046875 7.65625 0.0390625 7.53125 0.03125 C 7.40625 0.03125 7.25 0.0234375 7.0625 0.015625 C 6.875 0.015625 6.664062 0.0078125 6.4375 0 C 6.207031 0 5.984375 0 5.765625 0 C 5.535156 0 5.3125 0 5.09375 0 C 4.875 0.0078125 4.671875 0.015625 4.484375 0.015625 C 4.304688 0.0234375 4.15625 0.03125 4.03125 0.03125 C 3.90625 0.0390625 3.828125 0.046875 3.796875 0.046875 C 3.703125 0.046875 3.65625 0.0195312 3.65625 -0.03125 C 3.65625 -0.0625 3.679688 -0.0820312 3.734375 -0.09375 C 3.796875 -0.101562 3.867188 -0.125 3.953125 -0.15625 C 4.140625 -0.238281 4.289062 -0.332031 4.40625 -0.4375 C 4.519531 -0.550781 4.609375 -0.691406 4.671875 -0.859375 C 4.742188 -1.035156 4.789062 -1.25 4.8125 -1.5 C 4.832031 -1.75 4.84375 -2.054688 4.84375 -2.421875 L 4.84375 -9.09375 C 4.84375 -9.394531 4.765625 -9.59375 4.609375 -9.6875 C 4.460938 -9.78125 4.207031 -9.828125 3.84375 -9.828125 C 3.445312 -9.828125 3.082031 -9.773438 2.75 -9.671875 C 2.414062 -9.566406 2.109375 -9.4375 1.828125 -9.28125 C 1.554688 -9.125 1.304688 -8.953125 1.078125 -8.765625 C 0.859375 -8.585938 0.660156 -8.410156 0.484375 -8.234375 C 0.429688 -8.179688 0.375 -8.125 0.3125 -8.0625 C 0.25 -8 0.207031 -7.96875 0.1875 -7.96875 C 0.132812 -7.96875 0.109375 -8 0.109375 -8.0625 C 0.109375 -8.09375 0.117188 -8.140625 0.140625 -8.203125 C 0.171875 -8.265625 0.195312 -8.34375 0.21875 -8.4375 L 0.734375 -10.21875 L 10.796875 -10.21875 L 11.3125 -8.4375 C 11.332031 -8.34375 11.351562 -8.265625 11.375 -8.203125 C 11.40625 -8.140625 11.421875 -8.09375 11.421875 -8.0625 Z M 11.421875 -8.0625 "/></g></g></g></svg>